<?xml version="1.0" encoding="UTF-8" standalone="no"?>
<!DOCTYPE svg PUBLIC "-//W3C//DTD SVG 1.1//EN" "http://www.w3.org/Graphics/SVG/1.1/DTD/svg11.dtd">
<svg width="100%" height="100%" viewBox="0 0 727 718" version="1.1" xmlns="http://www.w3.org/2000/svg" xmlns:xlink="http://www.w3.org/1999/xlink" xml:space="preserve" xmlns:serif="http://www.serif.com/" style="fill-rule:evenodd;clip-rule:evenodd;stroke-linejoin:round;stroke-miterlimit:2;">
<g transform="matrix(1,0,0,1,-778.945426,-91.767077)">
<g transform="matrix(4.895806,0,0,4.827655,-6198.535328,-4796.173907)">
<g transform="matrix(1.414951,0,0,1.414951,1385.300222,965.651085)">
<path d="M82.501,33.161C85.886,33.135 87.573,32.574 87.603,35.498C87.627,37.891 87.517,76.763 87.664,77.459C88.042,79.252 89.879,78.76 97.491,78.813C110.038,78.9 131.457,78.592 132.273,78.989C133.128,79.406 133.132,81.286 133.132,81.498C133.134,82.216 133.147,88.467 133.09,90.474C133.021,92.912 131.748,92.491 123.5,92.486C114.5,92.476 105.5,92.467 96.501,92.457C77.202,92.532 75.397,92.613 74.695,92.172C73.351,91.326 74.037,90.853 73.893,67.495C73.877,64.862 73.696,35.368 73.947,34.574C74.453,32.971 74.829,33.162 76.493,33.147C76.974,33.143 76.969,33.151 82.501,33.161Z" style="fill:rgb(253,104,24);"/>
</g>
<g transform="matrix(1.414951,0,0,1.414951,1385.300222,965.651085)">
<path d="M28.198,89.497C28.233,85.492 28.21,85.51 28.229,81.495C28.24,79.37 28.388,78.899 30.515,78.834C31.453,78.805 54.423,78.831 56.501,78.833C59.447,78.836 60.493,78.557 60.503,81.5C60.506,82.22 60.535,90.136 60.518,90.501C60.416,92.697 59.703,92.518 57.501,92.532C55.341,92.545 37.446,92.66 30.498,92.544C27.657,92.497 28.287,90.729 28.198,89.497Z" style="fill:rgb(253,104,24);"/>
</g>
<g transform="matrix(1.414951,0,0,1.414951,1385.300222,965.651085)">
<path d="M68.532,107.532C61.559,114.561 61.548,114.531 54.522,121.523C49.727,126.295 49.134,128.281 46.44,125.562C44.831,123.938 44.754,124.027 40.405,119.584C38.314,117.448 39.966,116.872 46.416,110.412C55.917,100.895 56.976,99.804 57.882,98.869C60.859,95.801 61.727,95.665 62.277,95.945C63.023,96.324 62.963,96.386 69.769,103.249C71.704,105.201 70.503,105.618 68.532,107.532Z" style="fill:rgb(253,104,24);"/>
</g>
<g transform="matrix(1.414951,0,0,1.414951,1385.300222,965.651085)">
<path d="M109.491,66.491C108.259,67.701 105.829,70.189 105.512,70.513C105.121,70.914 101.079,75.052 100.441,75.356C99.361,75.87 98.679,75.053 93.803,70.179C91.118,67.497 91.075,67.523 90.971,67.212C90.45,65.658 94.127,62.627 96.382,60.383C103.916,52.884 103.823,52.825 111.362,45.348C113.268,43.458 113.718,44.477 115.616,46.384C120.534,51.327 122.571,52.367 121.454,54.468C121.094,55.146 119.646,56.328 119.471,56.471C118.561,57.214 118.73,57.355 115.5,60.5C113.218,62.722 113.356,62.838 111.05,65.018C110.777,65.276 110.746,65.204 110.474,65.474C110.394,65.553 110.401,65.549 109.491,66.491Z" style="fill:rgb(253,104,24);"/>
</g>
<g transform="matrix(1.414951,0,0,1.414951,1385.300222,965.651085)">
<path d="M73.924,111.499C74.086,107.384 73.488,105.903 76.506,105.852C85.637,105.695 85.96,105.828 86.715,106.14C87.832,106.601 87.612,107.154 87.612,117.5C87.613,136.461 87.614,136.441 87.602,136.517C87.415,137.632 86.543,137.963 86.399,138.018C86.075,138.141 77.278,138.001 76.485,137.988C74.785,137.961 74.401,138.097 73.953,136.453C73.907,136.285 73.925,132.048 73.924,111.499Z" style="fill:rgb(253,104,24);"/>
</g>
<g transform="matrix(1.414951,0,0,1.414951,1385.300222,965.651085)">
<path d="M59.71,74.285C54.456,69.173 47.298,61.857 46.23,60.766C40.584,54.996 38.97,54.194 39.693,52.607C39.813,52.344 42.342,49.815 42.579,49.579C47.68,44.477 47.875,44.478 48.5,44.479C49.813,44.481 49.627,45.001 61.83,57.172C68.261,63.586 70.563,65.604 70.596,66.495C70.628,67.349 70.53,67.428 63.43,74.428C61.828,76.007 61.356,75.831 59.71,74.285Z" style="fill:rgb(253,104,24);"/>
</g>
<g transform="matrix(1.414951,0,0,1.414951,1385.300222,965.651085)">
<path d="M96.292,110.706C95.293,109.713 91.166,105.731 90.99,105.259C90.427,103.753 94.864,100.263 98.05,97.044C100.185,94.888 100.719,95.989 102.868,98.122C109.395,104.6 109.332,104.634 115.857,111.14C121.289,116.556 122.245,117.033 121.779,118.635C121.649,119.084 118.119,122.48 117.787,122.8C114.215,126.237 113.784,128.161 111.294,125.722C111.249,125.677 100.939,115.48 96.292,110.706Z" style="fill:rgb(253,104,24);"/>
</g>
</g>
</g>
</svg>
